D:\PredSim\limbproperties\Ratio75\Ratio75_quasi_random_3.mot
version=1
nRows=4
nColumns=124
inDegrees=yes
endheader
                time	         pelvis_tilt	         pelvis_list	     pelvis_rotation	           pelvis_tx	           pelvis_ty	           pelvis_tz	       hip_flexion_r	     hip_adduction_r	      hip_rotation_r	        knee_angle_r	       ankle_angle_r	    subtalar_angle_r	         mtp_angle_r	       hip_flexion_l	     hip_adduction_l	      hip_rotation_l	        knee_angle_l	       ankle_angle_l	    subtalar_angle_l	         mtp_angle_l	    lumbar_extension	      lumbar_bending	     lumbar_rotation	          arm_flex_r	           arm_add_r	           arm_rot_r	        elbow_flex_r	          arm_flex_l	           arm_add_l	           arm_rot_l	        elbow_flex_l	glut_med1_r/activation	glut_med2_r/activation	glut_med3_r/activation	glut_min1_r/activation	glut_min2_r/activation	glut_min3_r/activation	semimem_r/activation	semiten_r/activation	bifemlh_r/activation	bifemsh_r/activation	    sar_r/activation	add_long_r/activation	add_brev_r/activation	add_mag1_r/activation	add_mag2_r/activation	add_mag3_r/activation	    tfl_r/activation	   pect_r/activation	   grac_r/activation	glut_max1_r/activation	glut_max2_r/activation	glut_max3_r/activation	iliacus_r/activation	  psoas_r/activation	quad_fem_r/activation	    gem_r/activation	   peri_r/activation	rect_fem_r/activation	vas_med_r/activation	vas_int_r/activation	vas_lat_r/activation	med_gas_r/activation	lat_gas_r/activation	 soleus_r/activation	tib_post_r/activation	flex_dig_r/activation	flex_hal_r/activation	tib_ant_r/activation	per_brev_r/activation	per_long_r/activation	per_tert_r/activation	ext_dig_r/activation	ext_hal_r/activation	glut_med1_l/activation	glut_med2_l/activation	glut_med3_l/activation	glut_min1_l/activation	glut_min2_l/activation	glut_min3_l/activation	semimem_l/activation	semiten_l/activation	bifemlh_l/activation	bifemsh_l/activation	    sar_l/activation	add_long_l/activation	add_brev_l/activation	add_mag1_l/activation	add_mag2_l/activation	add_mag3_l/activation	    tfl_l/activation	   pect_l/activation	   grac_l/activation	glut_max1_l/activation	glut_max2_l/activation	glut_max3_l/activation	iliacus_l/activation	  psoas_l/activation	quad_fem_l/activation	    gem_l/activation	   peri_l/activation	rect_fem_l/activation	vas_med_l/activation	vas_int_l/activation	vas_lat_l/activation	med_gas_l/activation	lat_gas_l/activation	 soleus_l/activation	tib_post_l/activation	flex_dig_l/activation	flex_hal_l/activation	tib_ant_l/activation	per_brev_l/activation	per_long_l/activation	per_tert_l/activation	ext_dig_l/activation	ext_hal_l/activation	 ercspn_r/activation	 ercspn_l/activation	 intobl_r/activation	 intobl_l/activation	 extobl_r/activation	 extobl_l/activation	
          0.89577035	        -13.96387391	          0.81511605	          2.51332569	          2.66878630	          0.87844782	         -0.00067202	          3.94566996	          1.99899397	          2.81054147	        -43.95082092	         -9.77149187	         11.63809452	         15.05762457	         43.21784143	          4.57538281	         -1.36493333	        -18.66225323	         15.26480404	          1.71097760	          0.25389656	          0.36586164	         -3.11540179	          4.54733890	         -2.12065139	        -14.63715134	         19.35490275	         41.88952349	         -0.05736011	        -13.61360720	         16.42391169	         51.17892364	          0.09298477	          0.05000002	          0.05762510	          0.15557971	          0.11788369	          0.10427930	          0.07713002	          0.05000047	          0.05000012	          0.09941923	          0.40472746	          0.83203264	          0.07429146	          0.05000036	          0.05000017	          0.05000001	          0.98502244	          0.68388266	          0.22882223	          0.05000016	          0.05000004	          0.05000001	          0.77493083	          0.92778073	          0.44046820	          0.71726024	          0.14198682	          0.92345572	          0.06741769	          0.07253407	          0.06437498	          0.13774826	          0.18536980	          0.11686933	          0.15363660	          0.16827483	          0.19300032	          0.43813469	          0.17475407	          0.11926452	          0.56894019	          0.91681209	          0.80430286	          0.32519524	          0.39718457	          0.48197045	          0.05497655	          0.06646456	          0.16326673	          0.64270024	          0.19550991	          0.57655792	          0.08835125	          0.10528933	          0.05701970	          0.15371127	          0.37666920	          0.42580143	          0.37860697	          0.05000011	          0.05335057	          0.24967281	          0.50727176	          0.45982988	          0.50822878	          0.05380072	          0.05257019	          0.32838184	          0.06333749	          0.61716434	          0.05000000	          0.05000000	          0.05000000	          0.05000000	          0.08035362	          0.08035362	          0.06044833	          0.08870249	          0.06524990	          0.06646480	          0.33897064	          0.05568787	          0.14269833	          0.11276620	          0.75445874	          0.42262135	          0.12888782	          0.23670730	          0.28318656	          0.05000000	          0.05000000	          0.05925707	
          0.90174215	        -13.93081983	          0.78161065	          2.41615016	          2.68726270	          0.87675410	         -0.00082713	          4.52614056	          1.99607135	          2.63819441	        -45.78816006	         -9.05493506	         11.45786093	         13.93584193	         42.95409862	          4.66944002	         -1.04834988	        -18.78678172	         14.36316932	          1.96964882	          0.26067547	          0.39619377	         -3.12753176	          4.49166306	         -2.13289466	        -14.67962934	         19.36294947	         41.93678566	         -0.23321432	        -13.64319755	         16.38880711	         51.17079283	          0.08456774	          0.05000002	          0.05240885	          0.14149655	          0.10721280	          0.09483988	          0.07500229	          0.05000005	          0.05000003	          0.09041979	          0.36809134	          0.77790513	          0.12917567	          0.05000007	          0.05000007	          0.05000000	          0.98928736	          0.70129454	          0.23605210	          0.05000003	          0.05000000	          0.05000000	          0.70478369	          0.85023403	          0.40059680	          0.67330887	          0.12913410	          0.94525200	          0.06131500	          0.06596825	          0.05854773	          0.12527921	          0.16859003	          0.10629026	          0.13972933	          0.15304251	          0.17552983	          0.43530140	          0.19644762	          0.10846864	          0.59698453	          0.93439563	          0.86002836	          0.37666275	          0.46689484	          0.55762859	          0.05000006	          0.06044818	          0.25299599	          0.58452268	          0.17781225	          0.52436759	          0.08035365	          0.09575849	          0.05185826	          0.13979725	          0.51481191	          0.49659966	          0.39855833	          0.05497644	          0.05000023	          0.22707232	          0.53102292	          0.47593854	          0.52285071	          0.05000005	          0.05497642	          0.38883076	          0.05760416	          0.66714608	          0.05000001	          0.05000001	          0.05000001	          0.05000000	          0.07307997	          0.07307997	          0.05497651	          0.08067310	          0.05934346	          0.06044838	          0.52720132	          0.15124657	          0.15814907	          0.36540947	          0.82437757	          0.58703215	          0.12240231	          0.23356741	          0.29466371	          0.05000000	          0.05000000	          0.06646470	
          0.90771395	        -13.89547154	          0.75913107	          2.30587517	          2.70567968	          0.87483911	         -0.00098581	          5.22160224	          1.97457302	          2.44475394	        -47.65897708	         -8.21153027	         11.20266266	         12.89500489	         42.70449115	          4.76457478	         -0.71609396	        -19.43838069	         13.30166966	          2.19504938	          0.26043480	          0.42270153	         -3.14171360	          4.41584079	         -2.10866820	        -14.71271920	         19.37232636	         41.93627950	         -0.38971859	        -13.67554171	         16.37223937	         51.09863252	          0.07691262	          0.05000000	          0.05000030	          0.12868821	          0.09750784	          0.08625493	          0.06915138	          0.05000040	          0.05000016	          0.08223495	          0.33477154	          0.71609891	          0.20402462	          0.05000009	          0.05000005	          0.05000000	          0.99233783	          0.64745480	          0.24537817	          0.05000002	          0.05000000	          0.05000000	          0.64098630	          0.77327040	          0.36433457	          0.61236062	          0.11744482	          0.96084171	          0.05576474	          0.05999677	          0.05324796	          0.11393887	          0.15332918	          0.09666881	          0.12708096	          0.13918902	          0.15964078	          0.43315544	          0.19577216	          0.09865000	          0.63454776	          0.91646655	          0.89988582	          0.34256705	          0.51981161	          0.68359557	          0.05497653	          0.05497651	          0.30228853	          0.53161138	          0.16171660	          0.47690156	          0.07308000	          0.08709038	          0.06646472	          0.18803688	          0.65297107	          0.58029854	          0.42894500	          0.05000000	          0.06646265	          0.20651763	          0.62462567	          0.55735868	          0.61118776	          0.05464531	          0.05000001	          0.56286358	          0.14372600	          0.76192749	          0.05000000	          0.05000002	          0.05000003	          0.05000005	          0.06646474	          0.06646474	          0.05000001	          0.07337053	          0.05397167	          0.05497656	          0.66183258	          0.26884820	          0.15611881	          0.54611160	          0.87438674	          0.70462635	          0.17107430	          0.21242478	          0.30479858	          0.05000000	          0.05000000	          0.06044830	
          0.91368575	        -13.85777058	          0.74826830	          2.18011939	          2.72401437	          0.87275598	         -0.00114740	          6.02441742	          1.93265983	          2.23389231	        -49.53895047	         -7.24905408	         10.87634600	         11.92855244	         42.49115998	          4.84675817	         -0.36787603	        -20.76032630	         11.98049763	          2.38491057	          0.27609038	          0.44246322	         -3.15554711	          4.32403815	         -2.04268081	        -14.73510420	         19.38150262	         41.88070703	         -0.51784916	        -13.70783409	         16.38182704	         50.94954245	          0.06995045	          0.05497647	          0.06044824	          0.11703929	          0.08868139	          0.07844709	          0.06289243	          0.05000017	          0.05000021	          0.07479101	          0.30446785	          0.70162143	          0.30314766	          0.08835118	          0.05000011	          0.05000000	          0.99451966	          0.68568685	          0.26937480	          0.05497656	          0.05497653	          0.05497665	          0.58296388	          0.70327356	          0.33135482	          0.55692943	          0.10681365	          0.97199219	          0.05071689	          0.05456584	          0.05000000	          0.10362507	          0.13944974	          0.08791830	          0.11557752	          0.12658956	          0.14519001	          0.43257531	          0.18775877	          0.08972016	          0.67601589	          0.90005636	          0.92839371	          0.51248435	          0.65654710	          0.77369296	          0.05000003	          0.05000001	          0.50096457	          0.48348963	          0.14707793	          0.43373218	          0.06646476	          0.07920691	          0.06044831	          0.17101569	          0.62706763	          0.62308257	          0.42856903	          0.05497646	          0.06044650	          0.18782355	          0.64840155	          0.54489258	          0.57894666	          0.05497649	          0.05497649	          0.54583913	          0.13071586	          0.82971938	          0.05497649	          0.13964040	          0.13071961	          0.13567418	          0.06044831	          0.06044831	          0.05497649	          0.06672899	          0.05000001	          0.05000007	          0.64066838	          0.27833531	          0.14198688	          0.67535808	          0.91015561	          0.78873514	          0.17566767	          0.19319598	          0.29326202	          0.05000000	          0.05000000	          0.05497649	
